<?xml version="1.0" encoding="utf-8"?>
<!-- Generator: Adobe Illustrator 16.0.0, SVG Export Plug-In . SVG Version: 6.00 Build 0)  -->
<!DOCTYPE svg PUBLIC "-//W3C//DTD SVG 1.1//EN" "http://www.w3.org/Graphics/SVG/1.1/DTD/svg11.dtd">
<svg version="1.1" id="Layer_1" xmlns="http://www.w3.org/2000/svg" xmlns:xlink="http://www.w3.org/1999/xlink" x="0px" y="0px"
	 width="1000px" height="259.814px" viewBox="-5.757 370.093 1000 259.814" enable-background="new -5.757 370.093 1000 259.814"
	 xml:space="preserve">
<g>
	<path fill="#ED1C24" d="M975.97,456.557c-3.237-3.205-7.385-5.056-11.836-5.494c-0.64-0.169-1.282-0.236-1.922-0.236H579.1
		c-24.481-24.275-56.651-37.596-91.144-37.596c-34.494,0-66.664,13.319-91.143,37.596H13.731h-0.066
		c-10.621,0.035-19.289,8.666-19.39,19.323c0,0.066-0.033,0.132-0.033,0.202v140.067c0,5.196,2.022,10.084,5.733,13.793
		c3.643,3.639,8.565,5.695,13.757,5.695c0.202,0,0.405-0.032,0.609-0.065h467.143h26.435h453.655
		c0.202,0.035,0.371,0.065,0.64,0.065c5.157,0,10.082-2.059,13.758-5.695c3.676-3.709,5.698-8.597,5.698-13.793V470.352
		C981.669,465.158,979.646,460.268,975.97,456.557"/>
	<path fill="#FFFFFF" d="M972.831,459.696c-2.596-2.594-5.965-4.048-9.572-4.319c-0.338-0.066-0.708-0.099-1.048-0.099H577.276
		c-23.806-24.275-55.435-37.633-89.321-37.633c-33.922,0-65.516,13.358-89.322,37.633H13.731c-0.335,0-0.675,0.033-1.012,0.099
		c-7.45,0.541-13.383,6.445-13.891,13.897c-0.101,0.335-0.136,0.673-0.136,1.078v140.067c0,4.01,1.551,7.79,4.418,10.623
		c2.833,2.83,6.576,4.386,10.621,4.386c0.202,0,0.438-0.04,0.608-0.04h467.144h26.435h453.655c0.202,0,0.371,0.04,0.64,0.04
		c3.979,0,7.755-1.556,10.621-4.386c2.832-2.833,4.386-6.613,4.386-10.623V470.352C977.219,466.338,975.664,462.526,972.831,459.696
		 M972.128,610.417c0,5.493-4.453,9.979-9.915,9.979v-0.063H13.731v0.063c-5.529,0-9.98-4.485-9.98-9.979V470.35
		c0-5.531,4.486-9.983,9.98-9.983h387.094l-0.035-0.031c21.985-23.166,52.906-37.6,87.164-37.6c34.259,0,65.179,14.434,87.196,37.6
		l-0.101,0.031h387.16c5.462,0,9.915,4.486,9.915,9.983v140.067H972.128z"/>
	<polygon fill="#FFFFFF" points="93.983,600.709 136.738,532.831 144.76,600.84 162.601,597.973 152.182,508.486 148.842,479.758 
		133.4,504.27 93.983,566.992 54.532,504.27 39.088,479.758 35.784,508.486 25.331,597.973 43.202,600.84 51.193,532.831 	"/>
	<path fill="#FFFFFF" d="M297.039,541.8c0,34.188-27.821,61.978-61.976,61.978c-34.159,0-61.976-27.786-61.976-61.978
		c0-34.121,27.819-61.941,61.976-61.941S297.039,507.679,297.039,541.8 M191.263,541.8c0,24.209,19.591,43.872,43.8,43.872
		c24.176,0,43.868-19.663,43.868-43.872c0-24.141-19.694-43.8-43.868-43.8C210.855,498,191.263,517.659,191.263,541.8"/>
	<polygon fill="#FFFFFF" points="330.859,524.503 409.424,605.226 409.424,482.928 391.316,485.993 391.316,560.613 
		312.718,479.927 312.718,600.84 330.859,597.806 	"/>
	<polygon fill="#FFFFFF" points="805.959,483.062 787.82,486.063 787.82,600.909 854.345,600.909 860.381,582.8 805.959,582.8 	"/>
	<polygon fill="#FFFFFF" points="906.235,550.771 884.627,597.74 903.037,600.909 953.714,490.109 937.224,482.858 914.704,532.023 
		874.78,482.858 860.889,494.694 	"/>
	<path fill="#FFFFFF" d="M583.718,552.253v45.35l-18.14,3.003V482.725h33.245c19.187,0,34.764,15.577,34.764,34.766
		c0,19.219-15.577,34.763-34.764,34.763H583.718 M583.718,537.146L583.718,537.146h15.105c10.928,0,19.694-8.767,19.694-19.656
		c0-10.892-8.767-19.626-19.694-19.626h-15.105V537.146"/>
	<path fill="#FFFFFF" d="M550.471,541.8c0,34.188-27.819,61.978-61.978,61.978c-34.154,0-61.976-27.786-61.976-61.978
		c0-34.121,27.821-61.941,61.976-61.941C522.652,479.859,550.471,507.679,550.471,541.8 M444.659,541.8
		c0,24.209,19.624,43.872,43.837,43.872c24.176,0,43.835-19.663,43.835-43.872c0-24.141-19.659-43.8-43.837-43.8
		C464.285,498,444.659,517.659,444.659,541.8"/>
	<path fill="#FFFFFF" d="M771.935,541.8c0,34.188-27.817,61.978-61.976,61.978c-34.189,0-61.974-27.786-61.974-61.978
		c0-34.121,27.782-61.941,61.974-61.941C744.118,479.859,771.935,507.679,771.935,541.8 M666.127,541.8
		c0,24.209,19.624,43.872,43.835,43.872c24.174,0,43.837-19.663,43.837-43.872c0-24.141-19.663-43.8-43.837-43.8
		C685.751,498,666.127,517.659,666.127,541.8"/>
	<path fill="#FFFFFF" d="M437.679,461.716c1.012-0.708,1.788-1.75,2.498-2.732c3.001-6.977,7.352-13.047,12.509-18.511
		c10.454-11.061,25.591-22.119,43.902-24.515c1.788,0.07,3.74-0.469,5.327,0.202l10.318,11.097c0.506,0.44,1.144,0.607,1.28,1.28
		c-0.204,0.236-0.308,0.543-0.542,0.743c-3.945,2.261-8.467,3.54-12.983,4.418c-10.248,1.956-20.025,5.126-29.567,8.498
		c-12.916,5.023-23.199,12.375-30.853,21.51L437.679,461.716"/>
	<path fill="none" stroke="#FFFFFF" stroke-width="0.8286" d="M437.679,461.716c1.012-0.708,1.788-1.75,2.498-2.732
		c3.001-6.977,7.352-13.047,12.509-18.511c10.454-11.061,25.591-22.119,43.902-24.515c1.788,0.07,3.74-0.469,5.327,0.202
		l10.318,11.097c0.506,0.44,1.144,0.607,1.28,1.28c-0.204,0.236-0.308,0.543-0.542,0.743c-3.945,2.261-8.467,3.54-12.983,4.418
		c-10.248,1.956-20.025,5.126-29.567,8.498c-12.916,5.023-23.199,12.375-30.853,21.51L437.679,461.716z"/>
	<path fill="#000008" d="M682.884,495.202c-6.539-6.004-12.98-12.307-19.523-18.31c-0.436-0.405-0.941-0.841-1.382-1.281
		l-17.868-16.656l-6.646-6.239c-0.839-1.146-2.561-1.551-2.191-3.507c0.305-0.506,0.202-4.924-0.742-6.136
		c-1.212-0.977-0.606-3.305-1.08-4.823c-0.269-1.483-0.403-2.934-1.178-4.011c-0.879-1.854-3.238-2.561-4.96-3.775
		c-0.068-1.352-0.673-2.326-1.281-3.133c-2.563-2.497-7.486-1.993-10.824-0.983c-1.483,0.337-2.496,1.857-4.012,1.623
		c-13.286-12.04-25.933-24.381-38.84-36.588c-0.611-0.471-0.777-1.247-0.983-1.954c-0.705-2.395,0.742-4.283,2.396-5.463
		c2.865-1.889,5.463,0.811,8.395,0.743c2.563,0.133,4.756-1.282,5.7-3.001c0.063-0.37,0.131-0.574,0.335-0.745
		c-0.204-0.839,0.271-1.247,0.203-2.022h0.068c0-1.279-0.476-2.226-0.743-3.374c-1.721-3.135-5.662-5.056-9.914-5.325
		c-3.069-0.506-5.931,0.37-8.631,1.279c-6.509,2.699-10.285,7.722-11.162,14.668h-0.135c-0.169,5.598,1.246,10.084,4.247,13.453
		c12.379,11.873,24.986,23.707,37.33,35.677c0.774,1.52-0.81,2.696-0.81,4.418h-0.066c-0.271,1.923,0.37,3.205,0.607,4.89
		c0.269,1.078,1.216,1.957,0.908,3.236c0,1.45-2.323,0.44-2.392,1.855c-2.092,1.516-3.678,3.539-5.801,5.125
		c-1.214,0.744-1.79-0.706-2.767-0.839c-7.519,6.91-18.073,14.767-27.716,20.198c-0.643,0.169-1.35,0.776-1.924,0.101
		c-0.71-1.38-0.471-3.474-0.839-5.091c-0.44-1.518-0.371-3.375-1.79-4.215c-0.372,0.237-0.436,0.738-0.541,1.35
		c0,0.37-0.232,0.672-0.37,1.01c-1.08,3.137-2.8,5.836-6.07,7.451c-0.504,0.103-1.043-0.202-1.214-0.673
		c-0.569-5.766-1.415-11.264-3.301-15.983c-3.273-8.599-8.029-16.187-14.604-22.391c-1.212-1.683-3.337-2.695-4.886-4.149
		c-0.506-0.809-1.588-1.041-1.72-2.189c1.114-1.113,2.497-1.989,3.81-2.9c3.507-3.373,7.285-6.508,8.157-11.702
		c-0.131-0.437-0.267-0.909-0.436-1.417c-0.571-0.809-1.855-1.451-3.203-1.144c-1.144,0.234-1.649,1.043-2.258,1.821
		c-2.154,4.583-6.001,8.022-10.352,11.091c-0.506,0.135-1.146,0.438-1.584,0.068c-1.99-1.451-3.507-3.304-5.632-4.653
		c-0.572-0.979-1.618-1.553-2.395-2.462c-2.596-3.372-5.697-6.373-8.024-9.981l-0.338-0.672c-4.15-4.856-7.285-10.625-10.148-16.355
		c-0.977-2.09-2.09-3.979-4.651-4.819c-7.218-1.855-14.535,0.304-21.074,1.921c-14.298,5.091-26.47,13.317-35.407,22.93
		c-3.135,3.237-5.833,6.809-8.191,10.585c-1.284,1.279-1.685,3.069-2.767,4.486c-0.57,2.09-1.785,3.742-2.292,5.865
		c-0.977,1.991-1.08,6.274,0.068,8.226c7.35,6.074,13.823,12.848,18.881,20.535c0.37,0.372,0.506,1.214,1.348,0.878
		c1.012-0.708,1.788-1.752,2.497-2.731c3.001-6.978,7.352-13.048,12.509-18.511c10.454-11.061,25.591-22.119,43.903-24.516
		c1.787,0.07,3.739-0.469,5.327,0.202c0.372,0.372,0.809,0.844,0.506,1.419c-3.678,0.539-7.352,1.01-10.723,2.256v0.237
		c3.1,3.137,6.204,6.272,9.507,9.205l0.844,0.373c3.17-0.373,6.206-1.249,9.069-2.395h1.114c0.506,0.44,1.145,0.607,1.278,1.279
		c-0.202,0.236-0.305,0.543-0.54,0.743c-3.945,2.261-8.466,3.54-12.982,4.418c-10.249,1.954-20.026,5.126-29.57,8.498
		c-12.914,5.023-23.197,12.375-30.851,21.51c-3.102,3.778-4.959,8.329-6.171,13.49h-0.066c-0.068,0.506-0.136,0.979-0.168,1.448
		c-0.64,8.125,2.359,14.296,8.867,17.635c2.292,1.279,4.956,1.549,7.586,2.09c0.476,0.673,1.113,1.185,1.045,2.125
		c-0.302,0.134-0.672,0.338-1.11,0.134c-20.47-4.082-40.328-11.365-57.457-21.986c-0.64-0.37-1.282-0.777-1.889-1.181l-0.977-0.337
		c-1.855,2.191-3.372-1.012-5.058-1.551c-1.146-0.539-2.127-2.123-3.774-1.518c-0.878-0.202-0.878-1.045-1.453-1.45
		c-1.314-2.293-3.338-3.98-4.684-6.204c-0.17-2.022-0.843-3.98-0.44-6.204h0.068c-0.136-0.909,0.269-2.125-0.337-2.699
		c-0.642-0.705-1.923-0.604-2.866-0.471c-5.225,0.841-7.621,4.821-8.668,9.17h-0.033l-0.067,1.113h-0.068l-0.063,1.822h-0.138
		c0.202,0.44-0.168,0.57-0.438,0.775c-5.867,2.361-11.937,4.99-17.333,8.124c-0.304,0.206-0.642,0.405-0.977,0.608
		c-7.35,4.857-15.51,10.388-17.332,18.982h-0.066l-0.068,1.282h-0.101c0.066,1.249,0.539,2.529,0.169,3.814
		c-0.068,0.132,0.066,0.401-0.169,0.401c0.235,0.575-0.37,0.843-0.066,1.316c-0.069,2.698,3.742,2.497,4.281,4.823
		c1.416,1.346,3.575,0.268,5.091-0.24c9.441-5.49,19.862-9.339,31.123-10.822c2.092-0.202,4.655-0.438,6.747,0.168
		c1.516,1.619,4.044,2.462,5.463,4.18c-0.07,1.481-0.44,2.697-0.811,3.91c0,0.373-0.27,0.677-0.305,1.078
		c-0.136,0.508,0.035,0.879,0.405,1.152c14.531,8.968,31.495,13.959,48.891,17.059c12.108,2.194,24.75,2.835,37.496,3.473
		l0.64,0.335l-0.2,0.309c-1.788,0.571-3.742,0.74-5.463,1.347c-0.405,9.14-3.474,28.394-5.159,36.348
		c7.586,10.927,20.231,18.114,34.562,18.114c9.609,0,17.736-2.333,24.818-7.792l0.911-1.824
		c7.992-12.334,24.008-41.942,26.605-59.039c0.134-0.64,0.27-1.349,0.913-1.551c0,0,1.955-0.636,0.706-0.234
		c14.939-5.126,38.709-13.15,66.39-35.134c0.07-0.879-0.604-1.183-0.909-1.921c0-0.508,0.134-0.946,0.37-1.282
		c0.539-0.674,1.385-1.11,1.894-1.818c1.581-1.553,3.503-3.071,4.583-4.758c-0.304-1.01,0.642-1.352,0.945-2.057
		c2.154-1.956,4.045-4.283,7.515-5.159c1.653-0.539,3.441-3.472,5.229-1.148c5.258,5.091,10.855,9.981,16.32,14.94
		c3.372,3.067,6.708,6.202,9.913,9.44c6.844,5.866,13.217,12.005,19.723,18.141c1.147,0.709,1.791,2.563,3.774,1.886
		c3.644-1.482,6.206-3.844,7.052-7.42h0.065C685.214,496.92,683.729,496.381,682.884,495.202"/>
	<path fill="#FFFFFF" d="M584.293,377.455c0.337,0.745,0.337,1.483,0.337,2.394c-0.576,1.01-2.094,1.349-3.406,1.179
		c-2.933-2.154-7.52-2.188-10.622-0.23c-0.744,0.975-2.158,1.617-2.428,2.931c-0.169,0.337-0.503,0.539-0.439,1.113
		c-0.132,0.305-0.401,0.574-0.401,0.979c-0.371,1.516-0.437,4.449,0.672,5.731c0.375,1.112,1.317,1.656,1.791,2.696
		c2.291,2.835,5.091,5.091,7.854,7.624l5.496,5.192c1.349,1.518,3.001,3.067,4.587,4.453c6.373,6.335,13.118,12.27,19.49,18.711
		c0.368,1.281-1.788,1.147-2.631,1.752c-0.504,0.341-1.113,0.572-1.654,0.44c-1.584-0.979-2.832-2.396-4.18-3.608
		c-10.89-10.726-22.288-20.873-33.178-31.427c-2.394-2.125-3.441-5.126-3.88-8.563l-0.065-2.528h0.065l0.066-0.979h0.068
		c1.215-5.192,4.18-9.507,9.98-11.027C576.365,373.439,581.561,374.421,584.293,377.455"/>
	<path fill="none" stroke="#FFFFFF" stroke-width="1.6573" stroke-linecap="square" stroke-miterlimit="2" d="M584.293,377.455
		c0.337,0.745,0.337,1.483,0.337,2.394c-0.576,1.01-2.094,1.349-3.406,1.179c-2.933-2.154-7.52-2.188-10.622-0.23
		c-0.744,0.975-2.158,1.617-2.428,2.931c-0.169,0.337-0.503,0.539-0.439,1.113c-0.132,0.305-0.401,0.574-0.401,0.979
		c-0.371,1.516-0.437,4.449,0.672,5.731c0.375,1.112,1.317,1.656,1.791,2.696c2.291,2.835,5.091,5.091,7.854,7.624l5.496,5.192
		c1.349,1.518,3.001,3.067,4.587,4.453c6.373,6.335,13.118,12.27,19.49,18.711c0.368,1.281-1.788,1.147-2.631,1.752
		c-0.504,0.341-1.113,0.572-1.654,0.44c-1.584-0.979-2.832-2.396-4.18-3.608c-10.89-10.726-22.288-20.873-33.178-31.427
		c-2.394-2.125-3.441-5.126-3.88-8.563l-0.065-2.528h0.065l0.066-0.979h0.068c1.215-5.192,4.18-9.507,9.98-11.027
		C576.365,373.439,581.561,374.421,584.293,377.455z"/>
	<path fill="#000008" d="M473.087,392.358c3.369,8.127,8.329,15.174,13.588,22.02c0.27,0.2,0.07,0.706,0.136,1.113
		c-3.51,1.314-7.216,2.526-10.69,4.11c-5.564,2.633-10.215,5.766-14.903,9.039c-1.854-0.068-2.092-1.924-3.205-2.866
		c-4.855-5.937-10.485-11.463-15.981-16.96c-0.069-0.44-0.203-0.677-0.203-1.15c3.338-3.643,8.162-6.204,12.611-9.035
		c5.159-2.933,10.826-5.566,16.759-7.152C472.175,391.21,472.715,391.718,473.087,392.358"/>
	<path fill="none" d="M473.087,392.358c3.369,8.127,8.329,15.174,13.588,22.02c0.27,0.2,0.07,0.706,0.136,1.113
		c-3.51,1.314-7.216,2.526-10.69,4.11c-5.564,2.633-10.215,5.766-14.903,9.039c-1.854-0.068-2.092-1.924-3.205-2.866
		c-4.855-5.937-10.485-11.463-15.981-16.96c-0.069-0.44-0.203-0.677-0.203-1.15c3.338-3.643,8.162-6.204,12.611-9.035
		c5.159-2.933,10.826-5.566,16.759-7.152C472.175,391.21,472.715,391.718,473.087,392.358z"/>
	<path fill="#FFFFFF" d="M624.348,430.528c0.708,0.843,0.572,2.359,1.011,3.304c1.08,0.609,2.696,0.403,3.676,1.279
		c1.348,1.113,1.448,2.9,1.787,4.653c-0.439,0.44,0.237,0.607,0,1.113v1.148h-0.067c-0.201,0.337,0.067,0.875-0.271,1.045
		c0.913,1.35,1.484,2.797,1.25,4.922h-0.065c-0.372,4.083-2.9,7.152-6.506,8.936c-0.813,0-1.926,0.64-2.599,0
		c0.232-0.81,0.572-1.822,1.076-2.359c2.567-2.53,3.238-5.835,3.238-7.792c-0.064-0.267-0.671-1.38-1.009-1.483
		c-0.705,1.689-1.755,3.441-3.743,6.206c-1.113,1.551-2.528,2.9-4.618,3.643c-0.979,0.202-1.855-0.168-2.294-0.744
		c-0.403-0.607-0.333-1.279-0.333-2.059c1.48-1.652,3.369-3.135,4.346-5.223c2.089-2.698,2.395-6.101,2.498-7.216
		c-0.067-0.238-0.744-0.341-1.011-0.138c-2.094,2.261-3.643,6.173-6.441,7.79c-0.609,0.104-1.282,0.066-1.621-0.37
		c-0.27-0.745-0.71-1.752-0.474-2.53v-0.708c0.134-0.304,0.405-0.64,0.405-1.008c0.271-1.082,1.01-1.822,1.419-2.733
		c-0.273-0.605,0.371-0.474,0.501-0.743c1.52-1.786,3.509-3.168,4.113-5.7h0.103c0.137-1.347-0.473-2.458-1.012-3.505
		c-0.134-1.214,1.52-0.944,2.296-1.383C621.854,428.27,623.506,429.349,624.348,430.528"/>
	<path fill="none" stroke="#FFFFFF" stroke-width="1.6573" stroke-linecap="square" stroke-miterlimit="2" d="M624.348,430.528
		c0.708,0.843,0.572,2.359,1.011,3.304c1.08,0.609,2.696,0.403,3.676,1.279c1.348,1.113,1.448,2.9,1.787,4.653
		c-0.439,0.44,0.237,0.607,0,1.113v1.148h-0.067c-0.201,0.337,0.067,0.875-0.271,1.045c0.913,1.35,1.484,2.797,1.25,4.922h-0.065
		c-0.372,4.083-2.9,7.152-6.506,8.936c-0.813,0-1.926,0.64-2.599,0c0.232-0.81,0.572-1.822,1.076-2.359
		c2.567-2.53,3.238-5.835,3.238-7.792c-0.064-0.267-0.671-1.38-1.009-1.483c-0.705,1.689-1.755,3.441-3.743,6.206
		c-1.113,1.551-2.528,2.9-4.618,3.643c-0.979,0.202-1.855-0.168-2.294-0.744c-0.403-0.607-0.333-1.279-0.333-2.059
		c1.48-1.652,3.369-3.135,4.346-5.223c2.089-2.698,2.395-6.101,2.498-7.216c-0.067-0.238-0.744-0.341-1.011-0.138
		c-2.094,2.261-3.643,6.173-6.441,7.79c-0.609,0.104-1.282,0.066-1.621-0.37c-0.27-0.745-0.71-1.752-0.474-2.53v-0.708
		c0.134-0.304,0.405-0.64,0.405-1.008c0.271-1.082,1.01-1.822,1.419-2.733c-0.273-0.605,0.371-0.474,0.501-0.743
		c1.52-1.786,3.509-3.168,4.113-5.7h0.103c0.137-1.347-0.473-2.458-1.012-3.505c-0.134-1.214,1.52-0.944,2.296-1.383
		C621.854,428.27,623.506,429.349,624.348,430.528z"/>
	<path fill="#000008" d="M424.428,432.346c6.34,5.194,11.531,11.13,16.32,17.4c0.101,0.337,0.168,0.608,0.101,0.981
		c-0.101,0.368-0.472,0.773-0.541,1.212c-0.539,0.606-0.841,1.483-1.35,2.022c-0.844,0.372-1.179-0.506-1.617-0.811
		c-4.317-5.696-9.542-10.89-14.903-15.811c-0.574-0.306-0.271-1.284-0.306-1.925h0.035c0.134-1.146,0.675-1.788,0.977-2.767
		C423.35,432.346,423.957,431.976,424.428,432.346"/>
	<path fill="none" d="M424.428,432.346c6.34,5.194,11.531,11.13,16.32,17.4c0.101,0.337,0.168,0.608,0.101,0.981
		c-0.101,0.368-0.472,0.773-0.541,1.212c-0.539,0.606-0.841,1.483-1.35,2.022c-0.844,0.372-1.179-0.506-1.617-0.811
		c-4.317-5.696-9.542-10.89-14.903-15.811c-0.574-0.306-0.271-1.284-0.306-1.925h0.035c0.134-1.146,0.675-1.788,0.977-2.767
		C423.35,432.346,423.957,431.976,424.428,432.346z"/>
	<path fill="#FFFFFF" d="M521.776,433.698c0.74,0.539,1.584,0.977,1.718,1.956c-1.416,0.913-3.878,1.281-3.372,3.676
		c0.271,0.436,0.743,0.773,1.279,0.977c0.979,0.065,1.551-0.774,2.396-1.113c5.024-0.842,7.346,3.439,9.508,6.138
		c2.192,3.339,4.452,6.476,5.866,10.351c0.813,1.419,1.316,3.032,1.823,4.723c0.909,1.448,1.11,3.47,1.616,5.192
		c0.239,1.752,0.609,3.441,0.812,5.293c-0.232,1.822,0.707,2.938,0.402,4.892c-0.474,1.11-1.921,0.469-2.934,0.539
		c-4.247-0.909-8.263-2.329-12.983-1.956c-1.244-0.811-1.11-2.46-1.954-3.474c-1.111-1.752-2.396-3.541-4.856-4.417
		c-1.416-0.068-2.798,0.37-4.147,0.775c-0.068,0.169-0.203,0.605,0.066,0.675c2.258,1.852,4.821,3.437,4.654,7.047
		c-0.203,0-0.203,0.201-0.203,0.302c-0.101,1.855-2.664,2.125-3.877,3.205c-0.137,0.977,0.269,1.583,0.642,2.192
		c1.787,1.854,4.278,0.132,6.134-0.543c2.798-3.374,9.174-2.594,13.121-1.314c5.86,2.728,13.146,0.673,17.428-3.102
		c0.475-0.372,0.606,0.305,0.677,0.537v0.745h-0.07c0.136,1.045-0.606,1.349-0.504,2.256c-0.134,0.375-0.403,0.71-0.403,1.113
		c-2.698,6.947-8.228,12.714-17.127,14.332c-4.117,0.508-8.198-0.064-11.604-1.957c-0.672-0.101-0.604,0.474-0.941,0.778
		c-2.498,5.461-6.78,9.744-12.711,12.745c-7.419,3.439-18.75,2.833-24.45-2.631c-0.133-0.471,0.171-0.569,0.307-0.839
		c5.834,0.911,11.059-2.362,13.283-6.307c1.419-2.09,2.328-4.487,4.048-6.373c2.563-2.528,5.633-5.225,9.813-6.305
		c0.538-0.339,0.811-0.743,0.811-1.549c-0.272-0.609-0.507-1.213-1.249-1.45c-6.239-0.337-10.288,4.082-13.353,7.519
		c-0.744,1.111-1.452,2.193-2.092,3.439v0.303c-0.132,0.374-0.539,0.675-0.606,1.15c-0.236,0.134-0.169,0.37-0.303,0.64
		c-0.977,2.563-3.575,4.349-6.642,5.126c-4.856,0.876-9.711-1.886-12.107-4.958c-0.675-0.606-0.675-2.024-1.954-1.958
		c-0.138,2.464,1.078,4.283,1.853,6.307c3.032,7.825,12.005,13.521,22.251,13.86c5.431,0.097,10.39-1.248,14.671-3.742
		c3.371-1.551,5.864-3.743,8.026-6.24c1.616-1.041,3.84,0.813,4.718-1.246c0.776-0.676,0.978-2.025,2.258-2.496
		c2.496,0.066,5.195,0.066,7.655-0.236c0.44,0.101,0.505,0.475,0.44,1.01h-0.067c-5.092,11.264-18.142,20.54-33.821,19.626
		c-13.924-0.371-25.964-8.029-33.888-16.255c-0.709-0.743-0.709-2.024-1.08-3.035c-1.113-1.181-1.481,0.706-2.392,0.945
		c-2.999,1.987-8.092,1.787-11.091-0.404c-2.563-2.09-5.025-4.521-4.18-8.703c0.2,0.07,0.132-0.132,0.132-0.23
		c0.574-2.026,2.396-3.408,4.789-4.048c0.708-0.135,1.652-0.304,1.886-0.942c0-1.148-0.977-1.654-1.954-2.059
		c-1.583-0.944-4.147,1.416-4.349-1.113c-0.236-0.745-0.372-1.586-0.438-2.53l-0.066-1.651h0.066l0.066-1.045h0.068
		c0.506-2.055,1.047-4.009,1.853-5.73c1.518-2.833,3.374-5.464,5.431-7.958c3.707-4.01,8.195-7.622,12.979-10.923
		c4.184-3.003,9.407-5.433,14.368-7.558c-5.025-0.134-9.174,2.295-13.459,4.081c-12.607,6.307-22.827,14.129-28.22,25.525
		c-1.957,3.507-2.631,10.25-0.07,13.725l1.281,1.857c0.27,0.232,0.136,0.839,0.136,1.279c-1.216,0.745-2.633-0.373-3.744-0.979
		c-4.283-2.629-5.665-8.026-4.587-13.622c2.126-7.891,7.284-13.588,13.352-18.614c8.329-7.181,20.031-12.912,31.698-16.355
		c9.61-3.608,20.366-4.416,29.874-8.294c1.855-0.438,3.336-2.057,5.396-1.923L521.776,433.698"/>
	<path fill="none" stroke="#FFFFFF" stroke-width="1.6573" stroke-linecap="square" stroke-miterlimit="2" d="M521.776,433.698
		c0.74,0.539,1.584,0.977,1.718,1.956c-1.416,0.913-3.878,1.281-3.372,3.676c0.271,0.436,0.743,0.773,1.279,0.977
		c0.979,0.065,1.551-0.774,2.396-1.113c5.024-0.842,7.346,3.439,9.508,6.138c2.192,3.339,4.452,6.476,5.866,10.351
		c0.813,1.419,1.316,3.032,1.823,4.723c0.909,1.448,1.11,3.47,1.616,5.192c0.239,1.752,0.609,3.441,0.812,5.293
		c-0.232,1.822,0.707,2.938,0.402,4.892c-0.474,1.11-1.921,0.469-2.934,0.539c-4.247-0.909-8.263-2.329-12.983-1.956
		c-1.244-0.811-1.11-2.46-1.954-3.474c-1.111-1.752-2.396-3.541-4.856-4.417c-1.416-0.068-2.798,0.37-4.147,0.775
		c-0.068,0.169-0.203,0.605,0.066,0.675c2.258,1.852,4.821,3.437,4.654,7.047c-0.203,0-0.203,0.201-0.203,0.302
		c-0.101,1.855-2.664,2.125-3.877,3.205c-0.137,0.977,0.269,1.583,0.642,2.192c1.787,1.854,4.278,0.132,6.134-0.543
		c2.798-3.374,9.174-2.594,13.121-1.314c5.86,2.728,13.146,0.673,17.428-3.102c0.475-0.372,0.606,0.305,0.677,0.537v0.745h-0.07
		c0.136,1.045-0.606,1.349-0.504,2.256c-0.134,0.375-0.403,0.71-0.403,1.113c-2.698,6.947-8.228,12.714-17.127,14.332
		c-4.117,0.508-8.198-0.064-11.604-1.957c-0.672-0.101-0.604,0.474-0.941,0.778c-2.498,5.461-6.78,9.744-12.711,12.745
		c-7.419,3.439-18.75,2.833-24.45-2.631c-0.133-0.471,0.171-0.569,0.307-0.839c5.834,0.911,11.059-2.362,13.283-6.307
		c1.419-2.09,2.328-4.487,4.048-6.373c2.563-2.528,5.633-5.225,9.813-6.305c0.538-0.339,0.811-0.743,0.811-1.549
		c-0.272-0.609-0.507-1.213-1.249-1.45c-6.239-0.337-10.288,4.082-13.353,7.519c-0.744,1.111-1.452,2.193-2.092,3.439v0.303
		c-0.132,0.374-0.539,0.675-0.606,1.15c-0.236,0.134-0.169,0.37-0.303,0.64c-0.977,2.563-3.575,4.349-6.642,5.126
		c-4.856,0.876-9.711-1.886-12.107-4.958c-0.675-0.606-0.675-2.024-1.954-1.958c-0.138,2.464,1.078,4.283,1.853,6.307
		c3.032,7.825,12.005,13.521,22.251,13.86c5.431,0.097,10.39-1.248,14.671-3.742c3.371-1.551,5.864-3.743,8.026-6.24
		c1.616-1.041,3.84,0.813,4.718-1.246c0.776-0.676,0.978-2.025,2.258-2.496c2.496,0.066,5.195,0.066,7.655-0.236
		c0.44,0.101,0.505,0.475,0.44,1.01h-0.067c-5.092,11.264-18.142,20.54-33.821,19.626c-13.924-0.371-25.964-8.029-33.888-16.255
		c-0.709-0.743-0.709-2.024-1.08-3.035c-1.113-1.181-1.481,0.706-2.392,0.945c-2.999,1.987-8.092,1.787-11.091-0.404
		c-2.563-2.09-5.025-4.521-4.18-8.703c0.2,0.07,0.132-0.132,0.132-0.23c0.574-2.026,2.396-3.408,4.789-4.048
		c0.708-0.135,1.652-0.304,1.886-0.942c0-1.148-0.977-1.654-1.954-2.059c-1.583-0.944-4.147,1.416-4.349-1.113
		c-0.236-0.745-0.372-1.586-0.438-2.53l-0.066-1.651h0.066l0.066-1.045h0.068c0.506-2.055,1.047-4.009,1.853-5.73
		c1.518-2.833,3.374-5.464,5.431-7.958c3.707-4.01,8.195-7.622,12.979-10.923c4.184-3.003,9.407-5.433,14.368-7.558
		c-5.025-0.134-9.174,2.295-13.459,4.081c-12.607,6.307-22.827,14.129-28.22,25.525c-1.957,3.507-2.631,10.25-0.07,13.725
		l1.281,1.857c0.27,0.232,0.136,0.839,0.136,1.279c-1.216,0.745-2.633-0.373-3.744-0.979c-4.283-2.629-5.665-8.026-4.587-13.622
		c2.126-7.891,7.284-13.588,13.352-18.614c8.329-7.181,20.031-12.912,31.698-16.355c9.61-3.608,20.366-4.416,29.874-8.294
		c1.855-0.438,3.336-2.057,5.396-1.923L521.776,433.698z"/>
	<path fill="#FFFFFF" d="M614.94,433.225c0.136,0.811-0.305,1.347-0.675,1.82c-1.181,1.251-2.495,2.259-3.674,3.542v0.37
		c-0.134,0.373-0.201,0.809-0.504,1.113c-1.724,2.359-1.792,7.115-0.239,9.711c0.609,0.841,0.745,2.057,1.521,2.796
		c-0.067,3.167,1.587,5.161,4.923,5.566c0.913,0.841,1.787,1.685,2.694,2.528c0,0.539-0.502,0.675-0.909,1.01
		c-2.059,0.709-3.505,2.022-4.719,3.475c-0.506,0.232-1.183,0.81-1.718,0.337c-2.464-2.799-4.184-6.072-6.613-8.87
		c-0.74-1.28-1.718-2.226-2.425-3.505v-0.337c0.337-0.305,0.401-0.876,0.773-1.214c0.644-1.08,1.082-2.296,0.913-4.013
		c-1.113-1.718-2.394-3.135-2.193-5.833v-1.352c0.643-2.628,2.431-4.146,4.518-5.697c2.264-1.586,5.263-1.586,8.099-1.716
		L614.94,433.225"/>
	<path fill="none" stroke="#FFFFFF" stroke-width="1.6573" stroke-linecap="square" stroke-miterlimit="2" d="M614.94,433.225
		c0.136,0.811-0.305,1.347-0.675,1.82c-1.181,1.251-2.495,2.259-3.674,3.542v0.37c-0.134,0.373-0.201,0.809-0.504,1.113
		c-1.724,2.359-1.792,7.115-0.239,9.711c0.609,0.841,0.745,2.057,1.521,2.796c-0.067,3.167,1.587,5.161,4.923,5.566
		c0.913,0.841,1.787,1.685,2.694,2.528c0,0.539-0.502,0.675-0.909,1.01c-2.059,0.709-3.505,2.022-4.719,3.475
		c-0.506,0.232-1.183,0.81-1.718,0.337c-2.464-2.799-4.184-6.072-6.613-8.87c-0.74-1.28-1.718-2.226-2.425-3.505v-0.337
		c0.337-0.305,0.401-0.876,0.773-1.214c0.644-1.08,1.082-2.296,0.913-4.013c-1.113-1.718-2.394-3.135-2.193-5.833v-1.352
		c0.643-2.628,2.431-4.146,4.518-5.697c2.264-1.586,5.263-1.586,8.099-1.716L614.94,433.225z"/>
	<path fill="#FFFFFF" d="M634.297,455.278c10.217,9.172,20.029,18.68,30.179,27.919c4.786,4.857,10.182,9.372,14.971,14.264
		c0.232,0.71,1.281,0.878,0.911,2.094c-0.606,0.976-1.147,2.056-2.464,2.524c-1.146,0-1.751-0.874-2.426-1.415
		c-4.282-3.979-8.228-7.955-12.443-12.139c-3.979-3.474-7.789-7.012-11.531-10.587c-6.979-6.34-13.824-12.778-20.636-19.256
		c-0.979-1.043,0.675-1.45,0.909-2.259C632.575,456.053,632.945,454.605,634.297,455.278"/>
	<path fill="none" stroke="#FFFFFF" stroke-width="1.6573" stroke-linecap="square" stroke-miterlimit="2" d="M634.297,455.278
		c10.217,9.172,20.029,18.68,30.179,27.919c4.786,4.857,10.182,9.372,14.971,14.264c0.232,0.71,1.281,0.878,0.911,2.094
		c-0.606,0.976-1.147,2.056-2.464,2.524c-1.146,0-1.751-0.874-2.426-1.415c-4.282-3.979-8.228-7.955-12.443-12.139
		c-3.979-3.474-7.789-7.012-11.531-10.587c-6.979-6.34-13.824-12.778-20.636-19.256c-0.979-1.043,0.675-1.45,0.909-2.259
		C632.575,456.053,632.945,454.605,634.297,455.278z"/>
	<path fill="#FFFFFF" d="M599.733,457.536c1.925,2.699,3.879,5.295,5.833,7.959c0.675,0.304,0.675,0.909,0.879,1.481
		c0.573,1.282,1.854,2.061,1.789,3.776c-0.708,0.979-1.551,1.921-2.668,2.629c-1.954,0.273-2.122-1.786-3.063-2.629
		c-2.634-4.011-5.568-7.72-8.396-11.499c-0.239-0.27-0.07-0.771-0.136-1.146c1.012-0.878,1.988-1.924,3.271-2.695
		C598.655,455.414,599.095,456.693,599.733,457.536"/>
	<path fill="none" stroke="#FFFFFF" stroke-width="1.6573" stroke-linecap="square" stroke-miterlimit="2" d="M599.733,457.536
		c1.925,2.699,3.879,5.295,5.833,7.959c0.675,0.304,0.675,0.909,0.879,1.481c0.573,1.282,1.854,2.061,1.789,3.776
		c-0.708,0.979-1.551,1.921-2.668,2.629c-1.954,0.273-2.122-1.786-3.063-2.629c-2.634-4.011-5.568-7.72-8.396-11.499
		c-0.239-0.27-0.07-0.771-0.136-1.146c1.012-0.878,1.988-1.924,3.271-2.695C598.655,455.414,599.095,456.693,599.733,457.536z"/>
	<path fill="#FFFFFF" d="M369.973,462.562c0.067,0.101-0.068,0.303,0.067,0.403c0.303,2.464,0.977,4.655,1.652,6.947
		c1.853,2.933,3.978,5.73,5.259,9.17c0.134,0.541,0.438,0.979,0.504,1.586c-0.202,0-0.134,0.204-0.134,0.302
		c-1.518,3.81-3.137,7.416-4.452,11.265l-0.811,0.503c-11.093,0.204-20.837,3.847-30.246,8.161c-3.203,1.448-5.899,3.304-8.969,4.89
		c-1.281-0.101-2.09-1.045-3.167-1.652c-0.307-0.306-0.508-0.744-0.508-1.349c-0.537-2.226-0.099-4.857,0.241-7.048
		c0.504-0.372,0.64-1.113,1.01-1.72c2.865-3.374,6.778-6.134,10.655-8.934c5.564-3.913,12.307-7.485,19.22-9.814
		c0.741,0,0.91,0.508,1.045,1.047c-0.136,0.572,0.199,0.741,0.199,1.282c0.611,2.292,1.654,4.212,3.17,5.832
		c0.27,0.405,0.912,0.405,1.35,0.306c0.539-0.306,0.606-0.913,0.606-1.585c-0.335-0.066-0.065-0.44-0.304-0.675
		c-1.347-2.528-1.448-7.113-0.539-9.981c-0.34-3.643,0.506-6.876,2.764-8.934C368.827,462.222,369.905,461.92,369.973,462.562"/>
	<path fill="none" stroke="#FFFFFF" stroke-width="1.6573" stroke-linecap="square" stroke-miterlimit="2" d="M369.973,462.562
		c0.067,0.101-0.068,0.303,0.067,0.403c0.303,2.464,0.977,4.655,1.652,6.947c1.853,2.933,3.978,5.73,5.259,9.17
		c0.134,0.541,0.438,0.979,0.504,1.586c-0.202,0-0.134,0.204-0.134,0.302c-1.518,3.81-3.137,7.416-4.452,11.265l-0.811,0.503
		c-11.093,0.204-20.837,3.847-30.246,8.161c-3.203,1.448-5.899,3.304-8.969,4.89c-1.281-0.101-2.09-1.045-3.167-1.652
		c-0.307-0.306-0.508-0.744-0.508-1.349c-0.537-2.226-0.099-4.857,0.241-7.048c0.504-0.372,0.64-1.113,1.01-1.72
		c2.865-3.374,6.778-6.134,10.655-8.934c5.564-3.913,12.307-7.485,19.22-9.814c0.741,0,0.91,0.508,1.045,1.047
		c-0.136,0.572,0.199,0.741,0.199,1.282c0.611,2.292,1.654,4.212,3.17,5.832c0.27,0.405,0.912,0.405,1.35,0.306
		c0.539-0.306,0.606-0.913,0.606-1.585c-0.335-0.066-0.065-0.44-0.304-0.675c-1.347-2.528-1.448-7.113-0.539-9.981
		c-0.34-3.643,0.506-6.876,2.764-8.934C368.827,462.222,369.905,461.92,369.973,462.562z"/>
	<path fill="#FFFFFF" d="M385.855,482.455v0.709h-0.07c-2.325,4.552-4.18,9.339-5.967,14.294c-1.146,0.608-2.125-0.539-2.866-0.977
		c-0.541-0.337-0.236-1.183-0.304-1.72c0.136-0.371,0.37-0.673,0.37-0.977c1.72-4.486,3.374-8.835,5.465-12.982
		c1.179-0.843,2.257,0.673,3.236,1.146L385.855,482.455"/>
	<path fill="none" stroke="#FFFFFF" stroke-width="1.6573" stroke-linecap="square" stroke-miterlimit="2" d="M385.855,482.455
		v0.709h-0.07c-2.325,4.552-4.18,9.339-5.967,14.294c-1.146,0.608-2.125-0.539-2.866-0.977c-0.541-0.337-0.236-1.183-0.304-1.72
		c0.136-0.371,0.37-0.673,0.37-0.977c1.72-4.486,3.374-8.835,5.465-12.982c1.179-0.843,2.257,0.673,3.236,1.146L385.855,482.455z"/>
	<path fill="#000008" d="M346.706,485.692c0.171,0.401,0.101,0.842,0.101,1.313c-1.921,1.52-4.282,2.798-6.27,4.283
		c-3.001,2.228-5.968,4.655-9.073,6.78c3.776-4.858,8.938-8.836,14.062-12.815C345.967,484.713,346.504,485.391,346.706,485.692"/>
	<path fill="none" stroke="#FFFFFF" stroke-width="0.6561" stroke-linecap="square" stroke-miterlimit="2" d="M346.706,485.692
		c0.171,0.401,0.101,0.842,0.101,1.313c-1.921,1.52-4.282,2.798-6.27,4.283c-3.001,2.228-5.968,4.655-9.073,6.78
		c3.776-4.858,8.938-8.836,14.062-12.815C345.967,484.713,346.504,485.391,346.706,485.692z"/>
	<path fill="#000008" d="M348.898,491.995c0.741,1.858-1.316,1.858-2.192,2.53c-4.62,2.062-8.395,4.655-12.675,6.881V500.9
		c3.978-3.81,8.561-7.047,13.891-9.878C348.594,490.852,348.73,491.594,348.898,491.995"/>
	<path fill="none" stroke="#FFFFFF" stroke-width="0.6561" stroke-linecap="square" stroke-miterlimit="2" d="M348.898,491.995
		c0.741,1.858-1.316,1.858-2.192,2.53c-4.62,2.062-8.395,4.655-12.675,6.881V500.9c3.978-3.81,8.561-7.047,13.891-9.878
		C348.594,490.852,348.73,491.594,348.898,491.995z"/>
	<path fill="#FFFFFF" d="M474.975,557.447h-0.066c-0.171,1.076,0.335,1.586,0.57,2.357c2.563,2.498,5.025,5.056,8.129,7.188
		c0.64,0.299,1.347,0.976,2.292,0.872c4.215-1.855,8.397-4.013,12.377-6.204h0.837c3.441,2.627,6.307,5.702,10.22,8.095
		c0.439,0.302,1.183,0.302,1.553,0c2.931-4.248,5.63-8.668,8.024-13.188c2.19-4.248,4.754-8.257,6.541-12.744
		c0.302-0.203,0.373-0.676,0.504-0.98c0.474-1.281,1.146-2.228,1.582-3.573h0.07c0.236-0.473,0.236-1.078,0.608-1.382
		c1.043-2.83,2.156-5.527,3.069-8.461c1.581-4.15,2.694-8.769,3.774-13.318h0.066c-0.066-0.71,0.271-2.158-0.842-1.688
		c-5.159,3.746-11.33,7.385-18.308,8.463c-13.422,2.428-26.604-1.041-36.788-7.855h-0.572c-0.743,0.305-0.576,1.351-0.44,2.464
		C479.054,528.985,479.525,536.847,474.975,557.447"/>
	<path fill="none" stroke="#FFFFFF" stroke-width="1.6573" stroke-linecap="square" stroke-miterlimit="2" d="M474.975,557.447
		h-0.066c-0.171,1.076,0.335,1.586,0.57,2.357c2.563,2.498,5.025,5.056,8.129,7.188c0.64,0.299,1.347,0.976,2.292,0.872
		c4.215-1.855,8.397-4.013,12.377-6.204h0.837c3.441,2.627,6.307,5.702,10.22,8.095c0.439,0.302,1.183,0.302,1.553,0
		c2.931-4.248,5.63-8.668,8.024-13.188c2.19-4.248,4.754-8.257,6.541-12.744c0.302-0.203,0.373-0.676,0.504-0.98
		c0.474-1.281,1.146-2.228,1.582-3.573h0.07c0.236-0.473,0.236-1.078,0.608-1.382c1.043-2.83,2.156-5.527,3.069-8.461
		c1.581-4.15,2.694-8.769,3.774-13.318h0.066c-0.066-0.71,0.271-2.158-0.842-1.688c-5.159,3.746-11.33,7.385-18.308,8.463
		c-13.422,2.428-26.604-1.041-36.788-7.855h-0.572c-0.743,0.305-0.576,1.351-0.44,2.464
		C479.054,528.985,479.525,536.847,474.975,557.447z"/>
	<path fill="#FFFFFF" d="M584.293,377.455c0.337,0.745,0.337,1.483,0.337,2.394c-0.576,1.01-2.094,1.349-3.406,1.179
		c-2.933-2.154-7.52-2.188-10.622-0.23c-0.744,0.975-2.158,1.617-2.428,2.931c-0.169,0.337-0.503,0.539-0.439,1.113
		c-0.132,0.305-0.401,0.574-0.401,0.979c-0.371,1.516-0.437,4.449,0.672,5.731c0.375,1.112,1.317,1.656,1.791,2.696
		c2.291,2.835,5.091,5.091,7.854,7.624l5.496,5.192c1.349,1.518,3.001,3.067,4.587,4.453c6.373,6.335,13.118,12.27,19.49,18.711
		c0.368,1.281-1.788,1.147-2.631,1.752c-0.504,0.341-1.113,0.572-1.654,0.44c-1.584-0.979-2.832-2.396-4.18-3.608
		c-10.89-10.726-22.288-20.873-33.178-31.427c-2.394-2.125-3.441-5.126-3.88-8.563l-0.065-2.528h0.065l0.066-0.979h0.068
		c1.215-5.192,4.18-9.507,9.98-11.027C576.365,373.439,581.561,374.421,584.293,377.455"/>
	<path fill="#FFFFFF" d="M624.348,430.528c0.708,0.843,0.572,2.359,1.011,3.304c1.08,0.609,2.696,0.403,3.676,1.279
		c1.348,1.113,1.448,2.9,1.787,4.653c-0.439,0.44,0.237,0.607,0,1.113v1.148h-0.067c-0.201,0.337,0.067,0.875-0.271,1.045
		c0.913,1.35,1.484,2.797,1.25,4.922h-0.065c-0.372,4.083-3.205,6.34-6.812,8.125c-0.84,0-1.721,0.64-2.36,0
		c0.203-0.841,1.787-1.382,2.155-2.058c1.216-1.787,1.926-4.519,2.463-6.911c-0.068-0.305-0.708-0.773-1.009-0.914
		c-1.787,1.08-2.598,3.877-3.981,5.262c-1.348,1.38-2.528,2.9-4.616,3.643c-0.981,0.202-1.857-0.168-2.296-0.744
		c-0.403-0.607-0.334-1.282-0.334-2.06c1.481-1.651,3.37-3.135,4.347-5.223c0.676-0.677,1.485-1.082,1.652-2.127
		c0.809-0.672,0.473-2.158,0.606-3.336c-0.067-0.169-1.112-1.45-1.351-1.284c-2.123,2.228-3.067,5.566-5.864,7.183
		c-0.609,0.103-1.282,0.066-1.622-0.37c-0.269-0.745-0.709-1.752-0.473-2.53v-0.708c0.134-0.307,0.405-0.64,0.405-1.01
		c0.271-1.08,1.789-3.203,1.919-3.472c1.521-1.786,3.51-3.168,4.114-5.7h0.103c0.136-1.347-0.473-2.458-1.012-3.505
		c-0.134-1.214,1.52-0.944,2.296-1.383C621.854,428.27,623.506,429.349,624.348,430.528"/>
	<path fill="#FFFFFF" d="M521.776,433.698c0.74,0.539,1.584,0.977,1.718,1.956c-1.416,0.913-3.878,1.281-3.372,3.676
		c0.271,0.436,0.743,0.773,1.279,0.977c0.979,0.065,1.551-0.774,2.396-1.113c5.024-0.842,7.346,3.439,9.508,6.138
		c2.192,3.339,4.452,6.476,5.866,10.351c0.813,1.419,1.316,3.032,1.823,4.723c0.909,1.448,1.11,3.47,1.616,5.192
		c0.239,1.752,0.609,3.441,0.812,5.293c-0.232,1.822,0.707,2.938,0.402,4.892c-0.474,1.11-1.921,0.469-2.934,0.539
		c-4.247-0.909-8.263-2.329-12.983-1.956c-1.244-0.811-1.11-2.46-1.954-3.474c-1.111-1.752-2.396-3.541-4.856-4.417
		c-1.416-0.068-2.798,0.37-4.147,0.775c-0.068,0.169-0.203,0.605,0.066,0.675c2.258,1.852,4.821,3.437,4.654,7.047
		c-0.203,0-0.203,0.201-0.203,0.302c-0.101,1.855-2.664,2.125-3.877,3.205c-0.137,0.977,0.269,1.583,0.642,2.192
		c1.787,1.854,4.278,0.132,6.134-0.543c2.798-3.374,9.174-2.594,13.121-1.314c5.86,2.728,13.146,0.673,17.428-3.102
		c0.475-0.372,0.606,0.305,0.677,0.537v0.745h-0.07c0.136,1.045-0.606,1.349-0.504,2.256c-0.134,0.375-0.403,0.71-0.403,1.113
		c-2.698,6.947-8.228,12.714-17.127,14.332c-4.117,0.508-8.198-0.064-11.604-1.957c-0.672-0.101-0.604,0.474-0.941,0.778
		c-2.498,5.461-6.78,9.744-12.711,12.745c-7.419,3.439-18.75,2.833-24.45-2.631c-0.133-0.471,0.171-0.569,0.307-0.839
		c5.834,0.911,11.059-2.362,13.283-6.307c1.419-2.09,2.328-4.487,4.048-6.373c2.563-2.528,5.633-5.225,9.813-6.305
		c0.538-0.339,0.811-0.743,0.811-1.549c-0.272-0.609-0.507-1.213-1.249-1.45c-6.239-0.337-10.288,4.082-13.353,7.519
		c-0.744,1.111-1.452,2.193-2.092,3.439v0.303c-0.132,0.374-0.539,0.675-0.606,1.15c-0.236,0.134-0.169,0.37-0.303,0.64
		c-0.977,2.563-3.575,4.349-6.642,5.126c-4.856,0.876-9.711-1.886-12.107-4.958c-0.675-0.606-0.675-2.024-1.954-1.958
		c-0.138,2.464,1.078,4.283,1.853,6.307c3.032,7.825,12.005,13.521,22.251,13.86c5.431,0.097,10.39-1.248,14.671-3.742
		c3.371-1.551,5.864-3.743,8.026-6.24c1.616-1.041,3.84,0.813,4.718-1.246c0.776-0.676,0.978-2.025,2.258-2.496
		c2.496,0.066,5.195,0.066,7.655-0.236c0.44,0.101,0.505,0.475,0.44,1.01h-0.067c-5.092,11.264-18.142,20.54-33.821,19.626
		c-13.924-0.371-25.964-8.029-33.888-16.255c-0.709-0.743-0.709-2.024-1.08-3.035c-1.113-1.181-1.481,0.706-2.392,0.945
		c-2.999,1.987-8.092,1.787-11.091-0.404c-2.563-2.09-5.025-4.521-4.18-8.703c0.2,0.07,0.132-0.132,0.132-0.23
		c0.574-2.026,2.396-3.408,4.789-4.048c0.708-0.135,1.652-0.304,1.886-0.942c0-1.148-0.977-1.654-1.954-2.059
		c-1.583-0.944-4.147,1.416-4.349-1.113c-0.236-0.745-0.372-1.586-0.438-2.53l-0.066-1.651h0.066l0.066-1.045h0.068
		c0.506-2.055,1.047-4.009,1.853-5.73c1.518-2.833,3.374-5.464,5.431-7.958c3.707-4.01,8.195-7.622,12.979-10.923
		c4.184-3.003,9.407-5.433,14.368-7.558c-5.025-0.134-9.174,2.295-13.459,4.081c-12.607,6.307-22.827,14.129-28.22,25.525
		c-1.957,3.507-2.631,10.25-0.07,13.725l1.281,1.857c0.27,0.232,0.136,0.839,0.136,1.279c-1.216,0.745-2.633-0.373-3.744-0.979
		c-4.283-2.629-5.665-8.026-4.587-13.622c2.126-7.891,7.284-13.588,13.352-18.614c8.329-7.181,20.031-12.912,31.698-16.355
		c9.61-3.608,20.366-4.416,29.874-8.294c1.855-0.438,3.336-2.057,5.396-1.923L521.776,433.698"/>
	<path fill="#FFFFFF" d="M614.94,433.225c0.136,0.811-0.305,1.347-0.675,1.82c-1.181,1.251-2.495,2.259-3.674,3.542v0.37
		c-0.134,0.373-0.201,0.809-0.504,1.113c-1.724,2.359-1.792,7.115-0.239,9.711c0.609,0.841,0.745,2.057,1.521,2.796
		c0.271,2.836,1.989,4.823,4.923,5.566c0.913,0.841,1.787,1.685,2.694,2.528c0,0.539-0.502,0.675-0.909,1.01
		c-2.059,0.709-3.505,2.022-4.719,3.475c-0.506,0.232-1.183,0.81-1.718,0.337c-2.464-2.799-4.184-6.072-6.613-8.87
		c-0.74-1.28-1.718-2.226-2.425-3.505v-0.337c0.337-0.305,0.401-0.876,0.773-1.214c0.644-1.08,1.082-2.296,0.913-4.013
		c-1.113-1.718-2.394-3.135-2.193-5.833v-1.352c0.643-2.628,2.431-4.146,4.518-5.697c2.264-1.586,5.263-1.586,8.099-1.716
		L614.94,433.225"/>
	<path fill="#FFFFFF" d="M634.297,455.278c10.217,9.172,20.029,18.68,30.179,27.919c4.786,4.857,10.182,9.372,14.971,14.264
		c0.232,0.71,1.281,0.878,0.911,2.094c-0.606,0.976-1.147,2.056-2.464,2.524c-1.146,0-1.751-0.874-2.426-1.415
		c-4.282-3.979-8.228-7.955-12.443-12.139c-3.979-3.474-7.789-7.012-11.531-10.587c-6.979-6.34-13.824-12.778-20.636-19.256
		c-0.979-1.043,0.675-1.45,0.909-2.259C632.575,456.053,632.945,454.605,634.297,455.278"/>
	<path fill="#FFFFFF" d="M599.733,457.536c1.925,2.699,3.879,5.295,5.833,7.959c0.675,0.304,0.675,0.909,0.879,1.481
		c0.573,1.282,1.854,2.061,1.789,3.776c-0.708,0.979-1.551,1.921-2.668,2.629c-1.954,0.273-2.122-1.786-3.063-2.629
		c-2.634-4.011-5.568-7.72-8.396-11.499c-0.239-0.27-0.07-0.771-0.136-1.146c1.012-0.878,1.988-1.924,3.271-2.695
		C598.655,455.414,599.095,456.693,599.733,457.536"/>
	<path fill="#FFFFFF" d="M369.973,462.562c0.067,0.101-0.068,0.303,0.067,0.403c0.303,2.464,0.977,4.655,1.652,6.947
		c1.853,2.933,3.978,5.73,5.259,9.17c0.134,0.541,0.438,0.979,0.504,1.586c-0.202,0-0.134,0.204-0.134,0.302
		c-1.518,3.81-3.137,7.416-4.452,11.265l-0.811,0.503c-11.093,0.204-20.837,3.847-30.246,8.161c-3.203,1.448-5.899,3.304-8.969,4.89
		c-1.281-0.101-2.09-1.045-3.167-1.652c-0.307-0.306-0.508-0.744-0.508-1.349c-0.537-2.226-0.099-4.857,0.241-7.048
		c0.504-0.372,0.64-1.113,1.01-1.72c2.865-3.374,6.778-6.134,10.655-8.934c5.564-3.913,12.307-7.485,19.22-9.814
		c0.741,0,0.91,0.508,1.045,1.047c-0.136,0.572,0.199,0.741,0.199,1.282c0.611,2.292,1.654,4.212,3.17,5.832
		c0.27,0.405,0.912,0.405,1.35,0.306c0.539-0.306,0.606-0.913,0.606-1.585c-0.335-0.066-0.065-0.44-0.304-0.675
		c-1.347-2.528-1.448-7.113-0.539-9.981c-0.34-3.643,0.506-6.876,2.764-8.934C368.827,462.222,369.905,461.92,369.973,462.562"/>
	<path fill="#FFFFFF" d="M385.855,482.455v0.709h-0.07c-2.325,4.552-4.18,9.339-5.967,14.294c-1.146,0.608-2.125-0.539-2.866-0.977
		c-0.541-0.337-0.236-1.183-0.304-1.72c0.136-0.371,0.37-0.673,0.37-0.977c1.72-4.486,3.374-8.835,5.465-12.982
		c1.179-0.843,2.257,0.673,3.236,1.146L385.855,482.455"/>
	<path fill="#000008" d="M346.706,485.692c0.171,0.401,0.101,0.842,0.101,1.313c-1.921,1.52-4.282,2.798-6.27,4.283
		c-3.001,2.228-5.968,4.655-9.073,6.78c3.776-4.858,8.938-8.836,14.062-12.815C345.967,484.713,346.504,485.391,346.706,485.692"/>
	<path fill="#000008" d="M348.898,491.995c0.741,1.858-1.316,1.858-2.192,2.53c-4.62,2.062-8.395,4.655-12.675,6.881V500.9
		c3.978-3.81,8.561-7.047,13.891-9.878C348.594,490.852,348.73,491.594,348.898,491.995"/>
	<path fill="#FFFFFF" d="M474.975,557.447h-0.066c-0.171,1.076,0.335,1.586,0.57,2.357c2.563,2.498,5.025,5.056,8.129,7.188
		c0.64,0.299,1.347,0.976,2.292,0.872c4.215-1.855,8.397-4.013,12.377-6.204h0.837c3.441,2.627,6.307,5.702,10.22,8.095
		c0.439,0.302,1.183,0.302,1.553,0c2.931-4.248,5.63-8.668,8.024-13.188c2.19-4.248,4.754-8.257,6.541-12.744
		c0.302-0.203,0.373-0.676,0.504-0.98c0.474-1.281,1.146-2.228,1.582-3.573h0.07c0.236-0.473,0.236-1.078,0.608-1.382
		c1.043-2.83,2.156-5.527,3.069-8.461c1.581-4.15,2.694-8.769,3.774-13.318h0.066c-0.066-0.71,0.271-2.158-0.842-1.688
		c-5.159,3.746-11.33,7.385-18.308,8.463c-13.422,2.428-26.604-1.041-36.788-7.855h-0.572c-0.743,0.305-0.576,1.351-0.44,2.464
		C479.054,528.985,479.525,536.847,474.975,557.447"/>
	<path fill="#000008" d="M504.006,545.307c1.415,0.474,3.135-0.809,3.843-2.865c0.675-2.09,0.135-4.146-1.282-4.617
		c-1.448-0.509-3.133,0.771-3.877,2.863C502.016,542.746,502.586,544.799,504.006,545.307"/>
	<path fill="#000008" d="M499.35,555.861c1.417,0.476,3.137-0.777,3.877-2.863c0.678-2.059,0.105-4.151-1.313-4.62
		c-1.418-0.473-3.171,0.773-3.844,2.868C497.328,553.301,497.935,555.391,499.35,555.861"/>
	<polygon fill="#000008" points="493.081,523.897 490.721,538.595 508.963,530.438 521.572,538.899 527.978,521.471 
		523.663,523.421 520.124,533 509.431,526.292 496.011,532.223 496.621,525.179 	"/>
	<path fill="#FFFFFF" d="M473.087,392.358c3.369,8.127,8.329,15.174,13.588,22.02c0.27,0.2,0.07,0.706,0.136,1.113
		c-3.51,1.314-7.216,2.526-10.69,4.11c-5.564,2.633-10.215,5.766-14.903,9.039c-1.854-0.068-2.092-1.924-3.205-2.866
		c-4.855-5.937-10.485-11.463-15.981-16.96c-0.069-0.44-0.203-0.677-0.203-1.15c3.338-3.643,8.162-6.204,12.611-9.035
		c5.159-2.933,10.826-5.566,16.759-7.152C472.175,391.21,472.715,391.718,473.087,392.358"/>
	<path fill="#FFFFFF" d="M424.428,432.346c6.34,5.194,11.531,11.13,16.32,17.4c0.101,0.337,0.168,0.608,0.101,0.981
		c-0.101,0.368-0.472,0.773-0.541,1.212c-0.539,0.606-0.841,1.483-1.35,2.022c-0.844,0.372-1.179-0.506-1.617-0.811
		c-4.317-5.696-9.542-10.89-14.903-15.811c-0.574-0.306-0.271-1.284-0.306-1.925h0.035c0.134-1.146,0.675-1.788,0.977-2.767
		C423.35,432.346,423.957,431.976,424.428,432.346"/>
	<path fill="#000008" d="M465.667,436.361c0.809,1.417,1.652,2.765,2.191,4.313l-0.169,0.44
		c-8.092,3.203-15.001,7.687-21.175,12.338h-0.133c0-0.706,0.606-1.076,0.909-1.647c4.284-6.714,9.915-12.412,16.421-17.571
		C464.79,434.609,465.06,435.687,465.667,436.361"/>
	<path fill="#000008" d="M491.867,449.311c0.337,0.133,0,0.674,0.337,0.773c-0.065,0.644-0.438,1.01-0.813,1.485
		c-1.584-0.406-4.079-0.916-5.256,0.438c-1.789,1.516-3.034,3.369-3.577,5.766c-0.167,0-0.035,0.234-0.099,0.37
		c0.064,0.944-0.677,1.518-0.307,2.425c0.066,0.206-0.133,0.574,0.169,0.642c-0.37,0.035,0.07,0.778-0.506,0.506
		c-0.64-0.708-0.909-1.584-0.839-2.732c-0.171-0.607,0.065-1.485-0.236-2.088c0.304-0.375,0.136-1.047,0.168-1.588h0.068
		c0.337-2.765,1.785-4.552,3.538-6.237C486.439,447.589,490.518,447.048,491.867,449.311"/>
	<path fill="#000008" d="M533.004,452.75c0.542,0.476,0.236,1.416,0.304,2.191c-0.569,0.743-1.181,1.483-2.226,1.855
		c-0.978,0.167-1.956,0.065-2.629-0.438c-0.541-0.776-1.283-1.417-1.214-2.633h0.068c0.066-1.111,0.706-1.648,1.482-2.224
		c0.643-0.337,1.519-0.674,2.292-0.337C531.892,451.501,532.567,452.209,533.004,452.75"/>
	<path fill="#000008" d="M498.982,467.686l0.132,1.722c-0.303,0.169-0.303,0.369-0.37,0.708c-0.469,0.774-1.182,1.483-2.257,1.718
		c-1.688,0.304-2.968-0.644-4.046-1.413c-0.237-0.946-0.914-1.522-0.642-2.736c0.201-0.372,0.337-0.743,0.469-1.111
		c0.545-0.913,1.722-1.45,2.971-1.516C497.094,465.057,498.51,466.269,498.982,467.686"/>
	<path fill="#000008" d="M465.264,472.845c-1.755,1.45-4.116,2.427-5.97,3.777c-1.146,0.271-1.211-0.839-1.717-1.28v-0.304
		c1.787-1.352,3.81-2.765,6.136-3.676C464.556,471.598,464.927,472.338,465.264,472.845"/>
	<path fill="#000008" d="M467.487,477.06c-2.697,1.216-5.054,2.936-7.586,4.283c-0.607-0.373-1.181-0.876-1.281-1.652
		c1.822-1.886,4.652-3.168,7.113-4.484C466.778,475.408,467.319,476.181,467.487,477.06"/>
	<path fill="#231F20" d="M982.917,456.759c0-3.201,2.631-5.562,5.663-5.562c3.069,0,5.663,2.361,5.663,5.562
		c0,3.238-2.594,5.601-5.663,5.601C985.548,462.36,982.917,459.997,982.917,456.759 M988.58,461.414c2.528,0,4.52-1.956,4.52-4.655
		c0-2.662-1.989-4.618-4.52-4.618c-2.528,0-4.517,1.958-4.517,4.618C984.065,459.458,986.052,461.414,988.58,461.414
		 M987.401,459.997h-0.98v-6.438h2.461c1.519,0,2.297,0.539,2.297,1.816c0,1.147-0.745,1.654-1.654,1.823l1.82,2.797h-1.112
		l-1.687-2.766h-1.145V459.997z M988.58,456.389c0.811,0,1.549-0.066,1.549-1.043c0-0.811-0.74-0.944-1.38-0.944h-1.348v1.987
		H988.58z"/>
	<path fill="#231F20" d="M924.144,600.067c1.11,0,1.516-0.54,1.516-1.754c0-1.824-1.181-1.721-2.188-1.721h-0.946v3.475H924.144
		 M922.525,595.681h0.946c1.246,0.068,1.954-0.166,1.954-1.584c0-1.146-0.438-1.484-1.989-1.45h-0.911V595.681z M921.482,600.978
		v-9.272h2.664c1.687-0.037,2.326,0.941,2.395,2.326c0.032,1.01-0.307,1.649-1.42,2.022v0.036c1.251,0.132,1.621,1.048,1.621,2.191
		c0.033,1.822-1.01,2.797-2.795,2.696H921.482z"/>
	<path fill="#231F20" d="M929.505,592.646h1.482c0.675,0,1.922,0.04,1.959,1.652c0,1.586-1.316,1.688-1.79,1.688h-1.651V592.646
		 M929.505,596.932h1.82c1.214,0,1.549,0.773,1.549,1.687c0,0.638,0.103,1.786,0.336,2.359h1.215v-0.203
		c-0.234,0-0.339-0.407-0.372-0.574c-0.099-0.707-0.166-1.382-0.166-2.088c-0.171-1.214-0.438-1.623-1.654-1.717v-0.035
		c1.047-0.136,1.722-0.914,1.755-1.987c0.065-2.16-1.181-2.668-3.102-2.668h-2.395v9.272h1.01v-4.046H929.505z"/>
	<path fill="#231F20" d="M935.172,600.978h1.146l0.675-2.664h2.932l0.744,2.664h1.113l-2.597-9.272h-1.351L935.172,600.978z
		 M939.686,597.4h-2.462l1.216-4.92h0.037L939.686,597.4z"/>
	<path fill="#231F20" d="M947.51,599.254c0,0.403,0,0.742,0.035,1.082h-0.035c-0.134-0.438-0.203-0.709-0.305-1.047l-2.663-7.586
		h-1.652v9.272h1.047v-7.384c0-0.474-0.037-0.947-0.037-1.449h0.037c0.063,0.604,0.169,1.007,0.338,1.414l2.594,7.417h1.687v-9.275
		h-1.047v7.556"/>
	<path fill="#231F20" d="M953.275,600.978c2.53,0,2.936-2.359,3.036-4.617c0.102-2.292-0.337-4.655-3.237-4.655h-2.53v9.272H953.275
		 M951.555,592.646h1.652c1.651,0,1.989,1.422,2.059,3.508c0.102,2.799-0.538,3.913-2.059,3.913h-1.652V592.646z"/>
</g>
</svg>
